Coordinates
version=1
nRows=26
nColumns=11
inDegrees=yes

Units are S.I. units (second, meters, Newtons, ...)
If the header above contains a line with 'inDegrees', this indicates whether rotational values are in degrees (yes) or radians (no).

endheader
time	pelvis_tilt	pelvis_tx	pelvis_ty	hip_flexion_l	hip_flexion_r	knee_angle_l	knee_angle_r	ankle_angle_l	ankle_angle_r	lumbar_extension
      2.46000000	    -86.92808461	      0.94172000	      0.82334014	     73.95491660	    104.64941661	     24.65177954	     25.53777027	    179.95188921	   -150.83037933	     93.67923224
      2.47000000	    -86.95296253	      0.93023873	      0.82568302	     75.21822962	    103.51629811	     23.78724867	     25.78300076	    179.79742204	   -151.71800341	     93.58098835
      2.48000000	    -87.11726822	      0.91868471	      0.82800793	     76.61202701	    102.47207244	     22.89461387	     26.03836534	    179.76333056	   -152.83216736	     93.62515725
      2.49000000	    -87.25445023	      0.90734540	      0.83028881	     77.98788848	    101.29460792	     21.95459082	     26.38787792	    179.68887010	   -153.85747479	     93.66900694
      2.50000000	    -87.44824486	      0.89600986	      0.83232651	     79.39255486	    100.11061891	     21.07926232	     26.73349508	    179.72300006	   -154.78515054	     93.76410158
      2.51000000	    -87.73328481	      0.88481489	      0.83427837	     80.85626663	     98.93350222	     20.20936138	     27.18320636	    179.79171799	   -155.82672575	     93.97889857
      2.52000000	    -88.06857087	      0.87367175	      0.83603745	     82.38207546	     97.76466000	     19.28758884	     27.63131212	    179.87312697	   -156.94953804	     94.26624258
      2.53000000	    -88.44491492	      0.86277959	      0.83759165	     83.91352245	     96.58323273	     18.41095533	     28.02726986	    180.05619773	   -158.07068074	     94.63353265
      2.54000000	    -88.91171090	      0.85206869	      0.83890487	     85.46885408	     95.46520437	     17.61027354	     28.37084717	    180.05369715	   -159.19428093	     95.10975486
      2.55000000	    -89.49547524	      0.84135856	      0.83992883	     87.09586162	     94.44230387	     16.86996874	     28.64852765	    180.14689545	   -160.23820848	     95.72643304
      2.56000000	    -90.06881733	      0.83090748	      0.84072224	     88.64854190	     93.40351379	     16.21948049	     28.83732087	    180.18022085	   -161.10724587	     96.36065692
      2.57000000	    -90.69706941	      0.82048484	      0.84119221	     90.23276586	     92.43974889	     15.58994938	     28.93391781	    180.15652402	   -162.08215253	     97.04390324
      2.58000000	    -91.34955066	      0.81011991	      0.84141604	     91.76965235	     91.47812956	     15.08792312	     28.98504379	    180.12617623	   -162.75110597	     97.76514255
      2.59000000	    -91.92971097	      0.79995266	      0.84129564	     93.21898657	     90.46121516	     14.62584558	     28.96739944	    180.02882258	   -163.38950476	     98.42444016
      2.60000000	    -92.54263935	      0.78976390	      0.84088912	     94.61170387	     89.50620952	     14.31444794	     28.83143557	    179.83579939	   -163.96393818	     99.11660888
      2.61000000	    -93.13829794	      0.77960502	      0.84016291	     95.94508883	     88.56380592	     14.07106925	     28.66210604	    179.56883941	   -164.51605202	     99.77954846
      2.62000000	    -93.72570558	      0.76945297	      0.83911158	     97.21914779	     87.66103114	     13.94347725	     28.31662768	    179.24070390	   -165.04821522	    100.43118048
      2.63000000	    -94.36456076	      0.75913061	      0.83776166	     98.49719329	     86.90276503	     13.88434752	     27.80770909	    178.86102167	   -165.61892943	    101.12338298
      2.64000000	    -94.95189397	      0.74882030	      0.83612745	     99.68987088	     86.17061083	     13.91071863	     27.07940230	    178.43467205	   -166.01589480	    101.75138302
      2.65000000	    -95.50595077	      0.73843067	      0.83421313	    100.84256944	     85.52080271	     13.97036034	     26.18558201	    177.99802239	   -166.34255074	    102.31461351
      2.66000000	    -95.99461573	      0.72795644	      0.83205690	    101.88346963	     84.92774559	     14.12885078	     25.09316500	    177.43193927	   -166.65487104	    102.79590779
      2.67000000	    -96.34569718	      0.71749305	      0.82965257	    102.79179008	     84.30509293	     14.33503077	     23.80826547	    176.88751570	   -166.92295462	    103.11390158
      2.68000000	    -96.64967741	      0.70686188	      0.82708170	    103.62761133	     83.77941168	     14.60600011	     22.30151555	    176.29472052	   -167.05270687	    103.36008532
      2.69000000	    -96.88879000	      0.69614787	      0.82430100	    104.39862836	     83.29469187	     14.89603848	     20.64423625	    175.67572198	   -167.16366760	    103.51277917
      2.70000000	    -96.99202020	      0.68544433	      0.82136499	    105.04667889	     82.77389613	     15.20812812	     18.86869702	    175.03027080	   -167.38044473	    103.51819932
      2.71000000	    -97.09329188	      0.67454246	      0.81834015	    105.70113360	     82.34519068	     15.52821200	     17.07163129	    174.41887361	   -167.55310632	    103.50356319
